# xmcd
#
# Track frame offsets:
#	150
#	17725
#	31511
#	47327
#	66508
#	83221
#	100464
#	117761
#	136803
#	156067
#	171444
#	188614
#	203371
#	219551
#	232884
#	248184
#	266454
#	280022
#	294315
#	312320
#	313384
#	314372
#	315357
#
# Disc length: 4215
#
# Revision: 1
# Processed by: cddbd v1.5.1PL0 Copyright (c) Steve Scherf et al.
# Submitted via: VisiTrax 2.9.5.180 - For more info visit www.synapsa.com
# Normalized: r0:DSETVAR1
#
DISCID=36107517
DTITLE=Various Artist - CDX 294 June 2002
DYEAR=2002
DGENRE=
TTITLE0=Ty Herndon - A few short years
TTITLE1=Sonya Isaacs - Baby don't you let go
TTITLE2=Billy Yates - Daddy had a cardiac and mama's got a cadillac
TTITLE3=Trisha Yearwwod - I don't paint myself into corners
TTITLE4=Alabama - I'm in the mood
TTITLE5=Dixie Chicks - Long time gone
TTITLE6=Willie Nelson - Maria (shut up and kiss me)
TTITLE7=Montgomery Gentry - My town
TTITLE8=Heather Myles - Never had a broken heart
TTITLE9=Sharped Dressed Man - Sharp dressed man
TTITLE10=Tommy Shane Steiner - Tell me where it hurts
TTITLE11=Eric Heatherly - The last man comitted
TTITLE12=Rascal Flatts - These days
TTITLE13=Garth Brooks - Thicker than blood
TTITLE14=Merle Haggard - Time changes everything
TTITLE15=John Colbert - I can't let go
TTITLE16=Teresa Farris - Naked in the pouring rain
TTITLE17=Maria Connel - The one
TTITLE18=Phil Vassar - Words are your wheels
TTITLE19=SheDaisy - Liner
TTITLE20=SheDaisy - Liner
TTITLE21=SheDaisy - Liner
TTITLE22=SheDaisy - Liner
EXTD=
EXTT0=
EXTT1=
EXTT2=
EXTT3=
EXTT4=
EXTT5=
EXTT6=
EXTT7=
EXTT8=
EXTT9=
EXTT10=
EXTT11=
EXTT12=
EXTT13=
EXTT14=
EXTT15=
EXTT16=
EXTT17=
EXTT18=
EXTT19=
EXTT20=
EXTT21=
EXTT22=
PLAYORDER=
